<?xml version="1.0" encoding="UTF-8"?>
<svg xmlns="http://www.w3.org/2000/svg" xmlns:xlink="http://www.w3.org/1999/xlink" width="0" height="0">
<symbol id="open_menu" width="32" height="32" viewBox="0 0 32 32" fill="none">
<path d="M5.33334 8H26.6667M5.33334 16H16M5.33334 24H26.6667" stroke="#FBFBFB" stroke-width="3" stroke-linecap="round" stroke-linejoin="round"/>
</symbol>

<symbol id="logo" width="168" height="16" viewBox="0 0 168 16" fill="none">
<path d="M14.5411 0.156924H12.5364C11.9178 0.156924 11.4163 0.648347 11.4163 1.25459V3.21923C11.4163 3.82547 11.9178 4.31692 12.5364 4.31692H14.5411C15.1597 4.31692 15.6612 3.82547 15.6612 3.21923V1.25459C15.6612 0.648347 15.1597 0.156924 14.5411 0.156924Z" fill="#FBFBFB"/>
<path d="M3.36519 11.52H1.20624C0.540049 11.52 0 12.0115 0 12.6177V14.5823C0 15.1886 0.540049 15.68 1.20624 15.68H3.36519C4.03138 15.68 4.57143 15.1886 4.57143 14.5823V12.6177C4.57143 12.0115 4.03138 11.52 3.36519 11.52Z" fill="#FBFBFB"/>
<path d="M3.1248 5.79091H1.12007C0.501486 5.79091 0 6.28233 0 6.88857V8.85321C0 9.45945 0.501599 9.95091 1.12018 9.95091H3.1248C3.74341 9.95091 4.2449 9.45945 4.2449 8.85321V6.88857C4.2449 6.28233 3.74341 5.79091 3.1248 5.79091Z" fill="#FBFBFB"/>
<path d="M8.88295 11.4891H6.87822C6.25964 11.4891 5.75815 11.9805 5.75815 12.5868L5.75804 14.5514C5.75804 15.1576 6.25975 15.6491 6.87833 15.6491H8.88295C9.50157 15.6491 10.0031 15.1576 10.0031 14.5514V12.5868C10.0031 11.9805 9.50157 11.4891 8.88295 11.4891Z" fill="#FBFBFB"/>
<path d="M3.1248 0.0431361H1.12007C0.501486 0.0431361 0 0.534559 0 1.1408V3.10544C0 3.71168 0.501599 4.20314 1.12018 4.20314H3.1248C3.74341 4.20314 4.2449 3.71168 4.2449 3.10544V1.1408C4.2449 0.534559 3.74341 0.0431361 3.1248 0.0431361Z" fill="#FBFBFB"/>
<path d="M9.03794 5.84874H7.03321C6.41463 5.84874 5.91314 6.34016 5.91314 6.9464V8.91104C5.91314 9.51728 6.41474 10.0087 7.03332 10.0087H9.03794C9.65655 10.0087 10.158 9.51728 10.158 8.91104V6.9464C10.158 6.34016 9.65655 5.84874 9.03794 5.84874Z" fill="#FBFBFB"/>
<path d="M14.6667 11.4891H12.6619C12.0434 11.4891 11.5419 11.9805 11.5419 12.5868V14.5514C11.5419 15.1576 12.0435 15.6491 12.662 15.6491H14.6667C15.2853 15.6491 15.7868 15.1576 15.7868 14.5514V12.5868C15.7868 11.9805 15.2853 11.4891 14.6667 11.4891Z" fill="#FBFBFB"/>
<path d="M8.7953 0.111854H6.79056C6.17198 0.111854 5.6705 0.603277 5.6705 1.20952V3.17416C5.6705 3.7804 6.1721 4.27185 6.79068 4.27185H8.7953C9.41391 4.27185 9.91539 3.78003 9.91539 3.17379V1.20952C9.91539 0.603277 9.41391 0.111854 8.7953 0.111854Z" fill="#FBFBFB"/>
<path d="M14.5219 5.96291H12.5171C11.8985 5.96291 11.3971 6.45433 11.3971 7.06057V9.02521C11.3971 9.63145 11.8987 10.1229 12.5172 10.1229H14.5219C15.1405 10.1229 15.642 9.63145 15.642 9.02521V7.06057C15.642 6.45433 15.1405 5.96291 14.5219 5.96291Z" fill="#FBFBFB"/>
<path d="M26.301 14C22.5132 14 20 11.648 20 7.984C20 4.4 22.4773 2 26.2112 2C29.3527 2 31.5607 3.648 31.8839 6.128H29.2809C29.0296 4.704 27.8268 3.904 26.2112 3.904C23.9493 3.904 22.603 5.536 22.603 7.984C22.603 10.672 24.1109 12.096 26.301 12.096C28.2038 12.096 29.4245 11.136 29.5502 9.696V9.536H26.0496V7.744H31.9736V9.216C31.8659 12.08 29.604 14 26.301 14Z" fill="#FBFBFB"/>
<path d="M33.543 13.84V2.16H39.8439C43.0572 2.16 44.3318 3.552 44.3318 5.568C44.3318 7.376 42.8957 8.24 41.2262 8.448V8.496C42.3033 8.736 42.788 9.264 43.2368 10.304C43.8112 11.616 43.901 13.184 44.637 13.744V13.84H41.7647C41.1544 13.296 41.0108 11.584 40.6876 10.544C40.3645 9.472 39.6644 9.344 38.354 9.344H36.0562V13.84H33.543ZM36.0562 7.488H39.5747C41.0467 7.488 41.7288 6.72 41.7288 5.728C41.7288 4.64 40.8851 4.016 39.5747 4.016H36.0562V7.488Z" fill="#FBFBFB"/>
<path d="M46.001 13.84V2.16H54.9588V4.016H48.5142V6.8H54.3305V8.656H48.5142V11.936H55.0485V13.84H46.001Z" fill="#FBFBFB"/>
<path d="M56.7936 13.84V2.16H65.7514V4.016H59.3068V6.8H65.1231V8.656H59.3068V11.936H65.8411V13.84H56.7936Z" fill="#FBFBFB"/>
<path d="M67.5862 13.84V2.16H70.638L74.9822 8.608C76.3106 10.56 76.4722 11.2 76.4722 11.2H76.526L76.4901 2.16H79.0033V13.84H75.9336L71.4278 7.2C70.4046 5.696 70.1353 4.784 70.1353 4.784H70.0994V13.84H67.5862Z" fill="#FBFBFB"/>
<path d="M80.894 13.84V11.472H83.5149V13.84H80.894Z" fill="#FBFBFB"/>
<path d="M85.4023 13.84V2.16H87.9155V6.832H93.9293V2.16H96.4425V13.84H93.9293V8.688H87.9155V13.84H85.4023Z" fill="#FBFBFB"/>
<path d="M97.5166 13.84L102.543 2.16H105.272L110.37 13.84H107.677L106.618 11.152H101.179L100.12 13.84H97.5166ZM101.897 9.296H105.9L104.733 6.416C103.925 4.288 103.907 3.904 103.907 3.904H103.871C103.871 3.904 103.871 4.288 103.064 6.416L101.897 9.296Z" fill="#FBFBFB"/>
<path d="M111.44 13.84V2.16H117.741C120.955 2.16 122.229 3.552 122.229 5.568C122.229 7.376 120.793 8.24 119.124 8.448V8.496C120.201 8.736 120.685 9.264 121.134 10.304C121.709 11.616 121.798 13.184 122.534 13.744V13.84H119.662C119.052 13.296 118.908 11.584 118.585 10.544C118.262 9.472 117.562 9.344 116.251 9.344H113.954V13.84H111.44ZM113.954 7.488H117.472C118.944 7.488 119.626 6.72 119.626 5.728C119.626 4.64 118.782 4.016 117.472 4.016H113.954V7.488Z" fill="#FBFBFB"/>
<path d="M126.563 13.84L121.752 2.16H124.445C124.445 2.16 127.048 8.704 127.317 9.504C127.748 10.784 127.945 11.44 127.945 11.44H127.981C127.963 11.44 128.161 10.784 128.609 9.504C128.897 8.704 131.392 2.16 131.392 2.16H133.995L129.363 13.84H126.563Z" fill="#FBFBFB"/>
<path d="M135.024 13.84V2.16H143.982V4.016H137.537V6.8H143.354V8.656H137.537V11.936H144.072V13.84H135.024Z" fill="#FBFBFB"/>
<path d="M150.311 14C146.972 14 144.961 12.384 144.961 9.984H147.834C147.798 11.344 148.803 12.096 150.311 12.096C151.909 12.096 152.662 11.536 152.662 10.704C152.662 9.872 152.016 9.52 149.718 8.96C147.618 8.448 145.32 7.84 145.32 5.44C145.32 3.536 147.187 2 150.131 2C153.165 2 155.104 3.52 155.104 5.664H152.321C152.303 4.528 151.442 3.904 150.131 3.904C148.857 3.904 148.013 4.48 148.013 5.248C148.013 6.16 148.713 6.448 150.544 6.912C153.255 7.584 155.445 7.856 155.445 10.464C155.445 12.56 153.309 14 150.311 14Z" fill="#FBFBFB"/>
<path d="M159.537 13.84V4.064H155.57V2.16H166V4.064H162.051V13.84H159.537Z" fill="#FBFBFB"/>
</symbol>

<symbol id="close_menu" width="32" height="32" viewBox="0 0 32 32" fill="none">
<path d="M24 8L8 24" stroke="#FBFBFB" stroke-width="3" stroke-linecap="round" stroke-linejoin="round"/>
<path d="M8 8L24 24" stroke="#FBFBFB" stroke-width="3" stroke-linecap="round" stroke-linejoin="round"/>
</symbol>

<symbol id="logo_tablet" width="194" height="18" viewBox="0 0 194 18" fill="none">
<path d="M16.3587 0.176539H14.1034C13.4075 0.176539 12.8433 0.729391 12.8433 1.41141V3.62163C12.8433 4.30365 13.4075 4.85654 14.1034 4.85654H16.3587C17.0547 4.85654 17.6188 4.30365 17.6188 3.62163V1.41141C17.6188 0.729391 17.0547 0.176539 16.3587 0.176539Z" fill="#FBFBFB"/>
<path d="M3.78584 12.96H1.35702C0.607555 12.96 0 13.5129 0 14.1949V16.4051C0 17.0871 0.607555 17.64 1.35702 17.64H3.78584C4.5353 17.64 5.14286 17.0871 5.14286 16.4051V14.1949C5.14286 13.5129 4.5353 12.96 3.78584 12.96Z" fill="#FBFBFB"/>
<path d="M3.5154 6.51477H1.26007C0.564171 6.51477 0 7.06763 0 7.74965V9.95986C0 10.6419 0.564299 11.1948 1.2602 11.1948H3.5154C4.21134 11.1948 4.77551 10.6419 4.77551 9.95986V7.74965C4.77551 7.06763 4.21134 6.51477 3.5154 6.51477Z" fill="#FBFBFB"/>
<path d="M9.99332 12.9252H7.738C7.0421 12.9252 6.47792 13.4781 6.47792 14.1601L6.4778 16.3703C6.4778 17.0523 7.04222 17.6052 7.73813 17.6052H9.99332C10.6893 17.6052 11.2534 17.0523 11.2534 16.3703V14.1601C11.2534 13.4781 10.6893 12.9252 9.99332 12.9252Z" fill="#FBFBFB"/>
<path d="M3.5154 0.0485281H1.26007C0.564171 0.0485281 0 0.601379 0 1.2834V3.49362C0 4.17564 0.564299 4.72853 1.2602 4.72853H3.5154C4.21134 4.72853 4.77551 4.17564 4.77551 3.49362V1.2834C4.77551 0.601379 4.21134 0.0485281 3.5154 0.0485281Z" fill="#FBFBFB"/>
<path d="M10.1677 6.57983H7.91236C7.21645 6.57983 6.65228 7.13268 6.65228 7.8147V10.0249C6.65228 10.7069 7.21658 11.2598 7.91249 11.2598H10.1677C10.8636 11.2598 11.4278 10.7069 11.4278 10.0249V7.8147C11.4278 7.13268 10.8636 6.57983 10.1677 6.57983Z" fill="#FBFBFB"/>
<path d="M16.5 12.9252H14.2447C13.5488 12.9252 12.9846 13.4781 12.9846 14.1601V16.3703C12.9846 17.0523 13.5489 17.6052 14.2448 17.6052H16.5C17.1959 17.6052 17.7601 17.0523 17.7601 16.3703V14.1601C17.7601 13.4781 17.1959 12.9252 16.5 12.9252Z" fill="#FBFBFB"/>
<path d="M9.89471 0.125835H7.63938C6.94348 0.125835 6.37931 0.678686 6.37931 1.36071V3.57093C6.37931 4.25295 6.94361 4.80583 7.63951 4.80583H9.89471C10.5906 4.80583 11.1548 4.25253 11.1548 3.57051V1.36071C11.1548 0.678686 10.5906 0.125835 9.89471 0.125835Z" fill="#FBFBFB"/>
<path d="M16.3371 6.70827H14.0818C13.3859 6.70827 12.8217 7.26113 12.8217 7.94315V10.1534C12.8217 10.8354 13.386 11.3883 14.0819 11.3883H16.3371C17.033 11.3883 17.5972 10.8354 17.5972 10.1534V7.94315C17.5972 7.26113 17.033 6.70827 16.3371 6.70827Z" fill="#FBFBFB"/>
<path d="M33.2504 17C28.8919 17 26 14.06 26 9.48C26 5 28.8506 2 33.1471 2C36.762 2 39.3028 4.06 39.6746 7.16H36.6794C36.3902 5.38 35.0062 4.38 33.1471 4.38C30.5444 4.38 28.9952 6.42 28.9952 9.48C28.9952 12.84 30.7303 14.62 33.2504 14.62C35.44 14.62 36.8446 13.42 36.9892 11.62V11.42H32.9612V9.18H39.7779V11.02C39.6539 14.6 37.0512 17 33.2504 17Z" fill="#FBFBFB"/>
<path d="M41.5837 16.8V2.2H48.8341C52.5316 2.2 53.9982 3.94 53.9982 6.46C53.9982 8.72 52.3457 9.8 50.4247 10.06V10.12C51.664 10.42 52.2218 11.08 52.7382 12.38C53.3992 14.02 53.5025 15.98 54.3494 16.68V16.8H51.0444C50.342 16.12 50.1768 13.98 49.805 12.68C49.4331 11.34 48.6275 11.18 47.1196 11.18H44.4756V16.8H41.5837ZM44.4756 8.86H48.5243C50.2181 8.86 51.003 7.9 51.003 6.66C51.003 5.3 50.0322 4.52 48.5243 4.52H44.4756V8.86Z" fill="#FBFBFB"/>
<path d="M55.919 16.8V2.2H66.2265V4.52H58.8109V8H65.5036V10.32H58.8109V14.42H66.3298V16.8H55.919Z" fill="#FBFBFB"/>
<path d="M68.3378 16.8V2.2H78.6454V4.52H71.2298V8H77.9224V10.32H71.2298V14.42H78.7487V16.8H68.3378Z" fill="#FBFBFB"/>
<path d="M80.7567 16.8V2.2H84.2683L89.2672 10.26C90.7958 12.7 90.9817 13.5 90.9817 13.5H91.0437L91.0023 2.2H93.8943V16.8H90.362L85.1772 8.5C83.9998 6.62 83.69 5.48 83.69 5.48H83.6486V16.8H80.7567Z" fill="#FBFBFB"/>
<path d="M96.0698 16.8V13.84H99.0856V16.8H96.0698Z" fill="#FBFBFB"/>
<path d="M101.257 16.8V2.2H104.149V8.04H111.069V2.2H113.961V16.8H111.069V10.36H104.149V16.8H101.257Z" fill="#FBFBFB"/>
<path d="M115.197 16.8L120.981 2.2H124.121L129.987 16.8H126.889L125.67 13.44H119.411L118.192 16.8H115.197ZM120.237 11.12H124.844L123.501 7.52C122.572 4.86 122.551 4.38 122.551 4.38H122.51C122.51 4.38 122.51 4.86 121.58 7.52L120.237 11.12Z" fill="#FBFBFB"/>
<path d="M131.219 16.8V2.2H138.469C142.167 2.2 143.634 3.94 143.634 6.46C143.634 8.72 141.981 9.8 140.06 10.06V10.12C141.299 10.42 141.857 11.08 142.374 12.38C143.035 14.02 143.138 15.98 143.985 16.68V16.8H140.68C139.977 16.12 139.812 13.98 139.44 12.68C139.068 11.34 138.263 11.18 136.755 11.18H134.111V16.8H131.219ZM134.111 8.86H138.16C139.853 8.86 140.638 7.9 140.638 6.66C140.638 5.3 139.668 4.52 138.16 4.52H134.111V8.86Z" fill="#FBFBFB"/>
<path d="M148.62 16.8L143.084 2.2H146.183C146.183 2.2 149.178 10.38 149.488 11.38C149.984 12.98 150.211 13.8 150.211 13.8H150.252C150.232 13.8 150.459 12.98 150.975 11.38C151.306 10.38 154.177 2.2 154.177 2.2H157.172L151.843 16.8H148.62Z" fill="#FBFBFB"/>
<path d="M158.356 16.8V2.2H168.664V4.52H161.248V8H167.941V10.32H161.248V14.42H168.767V16.8H158.356Z" fill="#FBFBFB"/>
<path d="M175.947 17C172.105 17 169.791 14.98 169.791 11.98H173.096C173.055 13.68 174.212 14.62 175.947 14.62C177.785 14.62 178.653 13.92 178.653 12.88C178.653 11.84 177.909 11.4 175.265 10.7C172.848 10.06 170.204 9.3 170.204 6.3C170.204 3.92 172.353 2 175.74 2C179.231 2 181.462 3.9 181.462 6.58H178.26C178.24 5.16 177.248 4.38 175.74 4.38C174.274 4.38 173.303 5.1 173.303 6.06C173.303 7.2 174.108 7.56 176.215 8.14C179.334 8.98 181.854 9.32 181.854 12.58C181.854 15.2 179.396 17 175.947 17Z" fill="#FBFBFB"/>
<path d="M186.564 16.8V4.58H181.999V2.2H194V4.58H189.456V16.8H186.564Z" fill="#FBFBFB"/>
</symbol>

<symbol id="open_menu_tablet" width="40" height="40" viewBox="0 0 40 40" fill="none">
<path d="M6.66663 10H33.3333M6.66663 20H20M6.66663 30H33.3333" stroke="#FBFBFB" stroke-width="4" stroke-linecap="round" stroke-linejoin="round"/>
</symbol>

<symbol id="close_menu_tablet" width="40" height="40" viewBox="0 0 40 40" fill="none">
<path d="M30 10L10 30" stroke="#FBFBFB" stroke-width="4" stroke-linecap="round" stroke-linejoin="round"/>
<path d="M10 10L30 30" stroke="#FBFBFB" stroke-width="4" stroke-linecap="round" stroke-linejoin="round"/>
</symbol>

</svg>
